<svg xmlns="http://www.w3.org/2000/svg" viewBox="0 0 300 340" width="300" height="340" role="img" aria-label="Contabila la lucru">
  <defs>
    <linearGradient id="blouse" x1="0" y1="0" x2="1" y2="1">
      <stop offset="0" stop-color="#4db0ff"/>
      <stop offset="1" stop-color="#0a5cb8"/>
    </linearGradient>
  </defs>
  <!-- hair behind -->
  <circle cx="150" cy="38" r="26" fill="#3a2a22"/>
  <path d="M82 120 Q82 40 150 40 Q218 40 218 120 L218 190 Q150 210 82 190 Z" fill="#3a2a22"/>
  <!-- shoulders -->
  <path d="M30 340 Q34 262 100 246 L200 246 Q266 262 270 340 Z" fill="url(#blouse)"/>
  <path d="M122 246 L150 292 L178 246 Z" fill="#f2c9a8"/>
  <!-- neck -->
  <rect x="132" y="206" width="36" height="46" rx="14" fill="#f2c9a8"/>
  <!-- face -->
  <ellipse cx="150" cy="140" rx="58" ry="68" fill="#f7d3b4"/>
  <!-- fringe -->
  <path d="M92 130 Q96 70 150 68 Q206 70 208 130 Q188 98 150 100 Q112 98 92 130 Z" fill="#3a2a22"/>
  <!-- glasses -->
  <circle cx="126" cy="146" r="19" fill="#ffffff" fill-opacity="0.45" stroke="#0b2a5b" stroke-width="4"/>
  <circle cx="174" cy="146" r="19" fill="#ffffff" fill-opacity="0.45" stroke="#0b2a5b" stroke-width="4"/>
  <line x1="145" y1="146" x2="155" y2="146" stroke="#0b2a5b" stroke-width="4"/>
  <circle cx="126" cy="148" r="5" fill="#2b1d17"/>
  <circle cx="174" cy="148" r="5" fill="#2b1d17"/>
  <!-- smile -->
  <path d="M130 180 Q150 198 170 180" fill="none" stroke="#c2574a" stroke-width="5" stroke-linecap="round"/>
  <ellipse cx="108" cy="172" rx="9" ry="6" fill="#f2a79a" opacity="0.5"/>
  <ellipse cx="192" cy="172" rx="9" ry="6" fill="#f2a79a" opacity="0.5"/>
</svg>
